<?xml version="1.0" encoding="UTF-8" standalone="no"?><svg height="81.90744mm" width="85.687202mm" xmlns="http://www.w3.org/2000/svg" xmlns:xlink="http://www.w3.org/1999/xlink"><filter id="a"><feGaussianBlur stdDeviation="13.396228"/></filter><radialGradient id="b" cx="351.15485" cy="372.06332" gradientTransform="matrix(1.1454302 -1.1687051 2.0295327 1.9193266 -889.0626 57.219022)" gradientUnits="userSpaceOnUse" r="163.57143"><stop offset="0" stop-color="#189fff" stop-opacity=".380392"/><stop offset="1" stop-color="#010b2b"/></radialGradient><g transform="translate(-42.35714 -106.1479)"><g><path d="m42.85714 106.6479h322.85715v308.57144h-322.85715z" fill="url(#b)"/><path d="m43.707165 106.65625c-1.924412 4.19542-.293756 9.91207-.796059 14.71602.217132 48.00091.434263 96.00182.651394 144.00273 11.845045 10.47022 28.927257 8.88024 43.590421 10.9124 53.492929 3.44313 107.282979 3.61079 160.606069-2.44914 34.0261-3.43502 68.05279-8.73145 100.89004-18.4129 8.35969-2.80704 18.86086-9.22302 17.06972-19.34203 0-43.14236 0-86.28472 0-129.42708-107.3372 0-214.67439 0-322.011585 0z" fill="#fff" opacity=".095833"/><g filter="url(#a)" opacity=".5" transform="matrix(.3387513 -.3401668 .3401668 .3387513 59.228831 277.49214)"><path d="m412.75 98.59375c-16.55621.241583-29.78681 13.84979-29.5625 30.40625 0 0-.00001 87.25107 0 196.3125 0 23.30736-12.11655 39.13192-38.21875 53.46875s-64.97276 22.875-103.875 22.875-77.7728-8.53817-103.875-22.875-38.21875-30.16139-38.21875-53.46875c0-54.37333.441249-103.35555.65625-138.875.1075-17.75973.177008-32.11577.09375-42.34375-.04163-5.11399-.129499-9.10767-.28125-12.46875-.07588-1.68054-.136902-3.05581-.40625-5.25-.134674-1.09709-.168072-2.2122-1-5.1875-.415964-1.48765-.786767-3.39663-3.1875-7.4375s-9.962915-14.750057-25.875-14.75c-9.346533-.120536-18.21527 4.12192-23.986992 11.47443s-7.786944 16.97498-5.450508 26.02557c.06318 2.03091.15684 4.32729.1875 8.09375.07765 9.5394.0133 23.81477-.09375 41.5-.214099 35.37046-.65625 84.53067-.65625 139.21875-.000001 47.58256 30.913445 84.95437 69.34375 106.0625 38.43031 21.10813 85.6089 30.28125 132.75 30.28125s94.31969-9.17312 132.75-30.28125 69.34375-58.47994 69.34375-106.0625c-.00001-109.06142 0-196.3125 0-196.3125.10978-8.10283-3.06279-15.9055-8.79582-21.63265-5.73304-5.72715-13.53896-8.891699-21.64168-8.7736z" fill-rule="evenodd"/><path d="m239.5625 99.5c-16.55621.241583-29.78681 13.84979-29.5625 30.40625v220.09375c-.15301 10.81908 5.53126 20.88244 14.87619 26.33663 9.34492 5.45419 20.9027 5.45419 30.24762 0 9.34493-5.45419 15.0292-15.51755 14.87619-26.33663v-220.09375c.10978-8.10283-3.06279-15.9055-8.79582-21.63265-5.73304-5.72715-13.53896-8.891699-21.64168-8.7736z" fill-rule="evenodd"/><g stroke-linecap="round" stroke-linejoin="round" stroke-width="60"><path d="m100 40a30 30 0 1 1 -60 0 30 30 0 1 1 60 0z" transform="translate(0 -10)"/><path d="m100 40a30 30 0 1 1 -60 0 30 30 0 1 1 60 0z" transform="translate(170 -10)"/><path d="m100 40a30 30 0 1 1 -60 0 30 30 0 1 1 60 0z" transform="translate(345 -10)"/></g></g></g><g fill="none" stroke="#000" stroke-linecap="round"><path d="m42.85714 106.6479h322.85715v308.57144h-322.85715z"/><path d="m42.85714 106.6479h322.85715v308.57144h-322.85715z"/><path d="m182.85714 106.6479v308.57145z"/><path d="m182.41744 207.43363h-139.120598z"/><path d="m182.41744 313.43363h-139.120598z"/></g><g fill="#fff" fill-rule="evenodd"><path d="m232.58675 170.48705c-5.52626 5.71371-5.37908 14.82412.32886 20.35634 0 0 29.67992 29.55642 66.779 66.50112 7.92839 7.8954 9.20688 17.37763 5.24164 31.11336-3.96524 13.73572-14.22829 29.85051-27.40648 43.08376-13.17818 13.23325-29.25004 23.56341-42.9691 27.58589-13.71907 4.02248-23.20656 2.78354-31.13495-5.11186-18.496-18.41904-35.00865-35.16193-47.01836-47.26732-6.00485-6.0527-10.86475-10.93947-14.37218-14.37589-1.75371-1.71821-3.14199-3.04119-4.33673-4.12814-.59736-.54347-1.08586-.98859-1.92349-1.64025-.41881-.32583-.80945-.69221-2.10337-1.4171-.64695-.36245-1.42193-.88298-3.60976-1.43518-2.18782-.55221-8.39243-1.60755-13.78265 3.80523-3.20715 3.13855-4.7683 7.59254-4.2224 12.04656s3.13649 8.39915 7.00667 10.67027c.71225.66649 1.52513 1.41253 2.81674 2.67799 3.27129 3.20507 8.1055 8.06276 14.08516 14.09007 11.95933 12.05462 28.53222 28.85811 47.13529 47.38377 16.18601 16.11865 39.37063 18.26267 59.56923 12.34037 20.1986-5.92231 39.3008-18.8635 55.26991-34.89933 15.96911-16.03584 28.83053-35.19184 34.66856-55.41496s3.59735-43.3986-12.58866-59.51725c-37.09907-36.9447-66.77899-66.50112-66.77899-66.50112-2.71913-2.78218-6.44805-4.34615-10.3383-4.33604-3.89027.0101-7.61101 1.59343-10.31564 4.38971z" opacity=".87"/><path d="m174.22754 229.70669c-5.52626 5.7137-5.37909 14.82411.32886 20.35633l74.86858 74.55705c3.62846 3.71702 8.97724 5.1924 13.99818 3.86118s8.93615-5.26279 10.24642-10.28924-.18739-10.36902-3.91952-13.98195l-74.86858-74.55704c-2.71913-2.78219-6.44805-4.34615-10.33831-4.33605s-7.611 1.59343-10.31563 4.38972z" opacity=".87"/><path d="m100 40a30 30 0 1 1 -60 0 30 30 0 1 1 60 0z" opacity=".87" transform="matrix(.3387513 -.3401668 .3401668 .3387513 55.827163 274.10463)"/><path d="m100 40a30 30 0 1 1 -60 0 30 30 0 1 1 60 0z" opacity=".87" transform="matrix(.3387513 -.3401668 .3401668 .3387513 113.41488 216.27627)"/><path d="m100 40a30 30 0 1 1 -60 0 30 30 0 1 1 60 0z" opacity=".87" transform="matrix(.3387513 -.3401668 .3401668 .3387513 172.69636 156.74708)"/></g></g></svg>